<svg xmlns="http://www.w3.org/2000/svg" xmlns:xlink="http://www.w3.org/1999/xlink" width="2000" zoomAndPan="magnify" viewBox="0 0 1500 1499.999933" height="2000" preserveAspectRatio="xMidYMid meet" version="1.0"><defs><clipPath id="7e1dd748d7"><path d="M 372.957031 327.539062 L 1126.707031 327.539062 L 1126.707031 1172.789062 L 372.957031 1172.789062 Z M 372.957031 327.539062 " clip-rule="nonzero"/></clipPath><clipPath id="8f5661f3da"><path d="M 496 510 L 1002 510 L 1002 1022 L 496 1022 Z M 496 510 " clip-rule="nonzero"/></clipPath><clipPath id="2cb0955fd5"><path d="M 758.707031 399.394531 L 1099.40625 778.898438 L 741.109375 1100.558594 L 400.410156 721.050781 Z M 758.707031 399.394531 " clip-rule="nonzero"/></clipPath><clipPath id="b78cf859c3"><path d="M 758.707031 399.394531 L 1099.40625 778.898438 L 741.109375 1100.558594 L 400.410156 721.050781 Z M 758.707031 399.394531 " clip-rule="nonzero"/></clipPath></defs><rect x="-150" width="1800" fill="#ffffff" y="-149.999993" height="1799.99992" fill-opacity="1"/><rect x="-150" width="1800" fill="#000000" y="-149.999993" height="1799.99992" fill-opacity="1"/><g clip-path="url(#7e1dd748d7)"><path fill="#ffffff" d="M 749.996094 327.90625 L 734.53125 336.664062 C 734.53125 336.664062 588.601562 418.730469 404.375 418.730469 L 372.957031 418.730469 L 372.957031 772.367188 C 372.957031 910.488281 468.605469 1010.289062 559.101562 1073.96875 C 649.597656 1137.644531 739.683594 1168.71875 739.683594 1168.71875 L 749.996094 1172.238281 L 760.304688 1168.71875 C 760.304688 1168.71875 850.386719 1137.652344 940.886719 1073.96875 C 1031.382812 1010.285156 1127.035156 910.425781 1127.035156 772.285156 L 1127.035156 418.648438 L 1095.613281 418.648438 C 911.390625 418.6875 765.457031 336.664062 765.457031 336.664062 Z M 749.996094 398.03125 C 769.859375 408.804688 892.167969 470.207031 1064.195312 478.378906 L 1064.195312 772.285156 C 1064.195312 881.109375 987.03125 964.660156 904.722656 1022.582031 C 827.546875 1076.890625 759.371094 1100.539062 749.996094 1103.914062 C 740.617188 1100.539062 672.441406 1076.886719 595.265625 1022.582031 C 512.957031 964.664062 435.796875 881.167969 435.796875 772.367188 L 435.796875 478.460938 C 607.820312 470.253906 730.128906 408.804688 749.996094 398.03125 Z M 749.996094 398.03125 " fill-opacity="1" fill-rule="nonzero"/></g><g clip-path="url(#8f5661f3da)"><g clip-path="url(#2cb0955fd5)"><g clip-path="url(#b78cf859c3)"><path fill="#8c52ff" d="M 988.863281 656.46875 C 988.15625 655.703125 987.40625 654.945312 986.636719 654.210938 C 953.003906 627.65625 904.269531 640.207031 872.71875 664.007812 C 842.847656 684.21875 819.195312 726.613281 839.445312 761.152344 C 842.441406 766.113281 846.757812 770.179688 851.597656 773.3125 C 894.941406 797.882812 950.699219 776.238281 980.621094 740.199219 C 1001.566406 718.726562 1010.714844 680.191406 988.863281 656.46875 Z M 867.839844 524.53125 C 849.820312 505.421875 816.34375 507.992188 794.9375 521.617188 C 752.171875 548.222656 721.390625 606.175781 744.230469 655.101562 C 746.679688 659.40625 749.945312 663.203125 753.773438 666.335938 C 781.433594 688.433594 820.449219 673.289062 842.996094 651.085938 C 873.320312 622.449219 894.726562 574.128906 874.523438 534.074219 C 872.660156 530.429688 870.414062 527.261719 867.839844 524.53125 Z M 959.046875 836.980469 C 926.683594 804.996094 872.15625 812.101562 837.699219 837.066406 C 810.972656 852.984375 791.464844 892.363281 812.914062 919.90625 C 845.800781 955.640625 906.542969 945.628906 940.6875 916.828125 C 964.710938 899.386719 979.765625 862.496094 959.046875 836.980469 Z M 685.980469 547.859375 C 673.195312 533.371094 651.882812 526.960938 633.046875 535.382812 C 582.691406 557.949219 555.769531 627.585938 584.730469 676.378906 C 597.289062 696.316406 624.195312 699.585938 644.015625 689.535156 C 686.328125 667.953125 709.246094 613.6875 696.40625 568.199219 C 694.675781 560.464844 690.976562 553.535156 685.972656 547.867188 Z M 751.894531 762.332031 C 726.527344 734.195312 686.515625 718.402344 648.832031 719.269531 C 606.3125 721.835938 562.929688 731.613281 525.933594 753.414062 C 496.496094 765.980469 486.164062 806.671875 507.644531 830.917969 C 532.871094 860.636719 575.15625 867.683594 602.519531 895.1875 C 628.210938 916.304688 635.152344 949.632812 646.570312 979.101562 C 655.371094 1005.019531 681.671875 1028.140625 710.40625 1019.609375 C 737.699219 1008.6875 749.664062 977.957031 759.675781 952.410156 C 772.496094 907.125 785.625 859.152344 776.585938 811.890625 C 773.167969 792.761719 764.28125 776.070312 751.894531 762.332031 Z M 751.894531 762.332031 " fill-opacity="1" fill-rule="nonzero"/></g></g></g></svg>